<?xml version="1.0" encoding="UTF-8"?>
<!DOCTYPE svg PUBLIC "-//W3C//DTD SVG 1.1//EN" "http://www.w3.org/Graphics/SVG/1.1/DTD/svg11.dtd">
<svg xmlns="http://www.w3.org/2000/svg" version="1.1" width="64px" height="64px" style="shape-rendering:geometricPrecision; text-rendering:geometricPrecision; image-rendering:optimizeQuality; fill-rule:evenodd; clip-rule:evenodd" xmlns:xlink="http://www.w3.org/1999/xlink">
<g><path style="opacity:0.976" fill="#8b82fe" d="M 33.5,4.5 C 25.0915,14.4126 16.0915,23.9126 6.5,33C 5.90558,33.4643 5.23891,33.631 4.5,33.5C -0.166667,9.5 9.5,-0.166667 33.5,4.5 Z"/></g>
<g><path style="opacity:0.979" fill="#7e7afd" d="M 33.5,4.5 C 36.5,4.5 39.5,4.5 42.5,4.5C 36.0619,10.4365 29.7286,16.6032 23.5,23C 24.056,23.3826 24.3893,23.8826 24.5,24.5C 20.1667,25.5 17.5,28.1667 16.5,32.5C 15.8826,32.3893 15.3826,32.056 15,31.5C 11.2684,35.0622 7.76837,38.7288 4.5,42.5C 4.5,39.5 4.5,36.5 4.5,33.5C 5.23891,33.631 5.90558,33.4643 6.5,33C 16.0915,23.9126 25.0915,14.4126 33.5,4.5 Z"/></g>
<g><path style="opacity:0.998" fill="#6d6ffb" d="M 42.5,4.5 C 47.3134,3.74133 51.3134,5.07467 54.5,8.5C 49.3953,13.1026 44.3953,17.936 39.5,23C 40.056,23.3826 40.3893,23.8826 40.5,24.5C 39.5,24.5 38.5,24.5 37.5,24.5C 37.933,27.2853 39.2663,29.6187 41.5,31.5C 40.4787,33.188 39.1454,34.5213 37.5,35.5C 37.5654,35.0618 37.3988,34.7284 37,34.5C 35.549,36.4641 33.7157,37.7974 31.5,38.5C 32.7623,33.0462 34.4289,27.7129 36.5,22.5C 35.3803,20.4038 33.8803,20.0705 32,21.5C 31.0965,25.3724 29.9298,29.0391 28.5,32.5C 28.5654,32.0618 28.3988,31.7284 28,31.5C 26.5187,32.4709 25.6854,33.8042 25.5,35.5C 20.4825,33.1328 20.3158,30.4662 25,27.5C 25.7401,26.2506 25.5735,25.2506 24.5,24.5C 24.3893,23.8826 24.056,23.3826 23.5,23C 29.7286,16.6032 36.0619,10.4365 42.5,4.5 Z"/></g>
<g><path style="opacity:0.98" fill="#5a61fa" d="M 54.5,8.5 C 56.1361,9.74894 57.3028,11.4156 58,13.5C 58.4986,17.1516 58.6653,20.8183 58.5,24.5C 46.8333,35.5 35.5,46.8333 24.5,58.5C 20.6286,58.815 16.9619,58.4816 13.5,57.5C 18.9185,52.073 24.5852,47.073 30.5,42.5C 30.4326,41.0413 30.7659,39.7079 31.5,38.5C 33.7157,37.7974 35.549,36.4641 37,34.5C 37.3988,34.7284 37.5654,35.0618 37.5,35.5C 37.5,36.5 37.5,37.5 37.5,38.5C 48.0287,35.726 49.0287,31.0593 40.5,24.5C 40.3893,23.8826 40.056,23.3826 39.5,23C 44.3953,17.936 49.3953,13.1026 54.5,8.5 Z"/></g>
<g><path style="opacity:1" fill="#e6e5fe" d="M 24.5,24.5 C 25.5735,25.2506 25.7401,26.2506 25,27.5C 20.3158,30.4662 20.4825,33.1328 25.5,35.5C 25.5,36.5 25.5,37.5 25.5,38.5C 21.4698,38.1507 18.4698,36.1507 16.5,32.5C 17.5,28.1667 20.1667,25.5 24.5,24.5 Z"/></g>
<g><path style="opacity:1" fill="#e3e3fe" d="M 40.5,24.5 C 49.0287,31.0593 48.0287,35.726 37.5,38.5C 37.5,37.5 37.5,36.5 37.5,35.5C 39.1454,34.5213 40.4787,33.188 41.5,31.5C 39.2663,29.6187 37.933,27.2853 37.5,24.5C 38.5,24.5 39.5,24.5 40.5,24.5 Z"/></g>
<g><path style="opacity:1" fill="#adaffd" d="M 31.5,38.5 C 30.7659,39.7079 30.4326,41.0413 30.5,42.5C 28.6536,42.7778 27.3202,42.1112 26.5,40.5C 27.4822,37.9044 28.1489,35.2377 28.5,32.5C 29.9298,29.0391 31.0965,25.3724 32,21.5C 33.8803,20.0705 35.3803,20.4038 36.5,22.5C 34.4289,27.7129 32.7623,33.0462 31.5,38.5 Z"/></g>
<g><path style="opacity:0.976" fill="#4f5af9" d="M 58.5,24.5 C 58.5,28.1667 58.5,31.8333 58.5,35.5C 50.5,42.8333 42.8333,50.5 35.5,58.5C 31.8333,58.5 28.1667,58.5 24.5,58.5C 35.5,46.8333 46.8333,35.5 58.5,24.5 Z"/></g>
<g><path style="opacity:0.987" fill="#676afb" d="M 16.5,32.5 C 18.4698,36.1507 21.4698,38.1507 25.5,38.5C 25.5,37.5 25.5,36.5 25.5,35.5C 25.6854,33.8042 26.5187,32.4709 28,31.5C 28.3988,31.7284 28.5654,32.0618 28.5,32.5C 28.1489,35.2377 27.4822,37.9044 26.5,40.5C 27.3202,42.1112 28.6536,42.7778 30.5,42.5C 24.5852,47.073 18.9185,52.073 13.5,57.5C 6.70407,54.9256 3.70407,49.9256 4.5,42.5C 7.76837,38.7288 11.2684,35.0622 15,31.5C 15.3826,32.056 15.8826,32.3893 16.5,32.5 Z"/></g>
<g><path style="opacity:0.932" fill="#4955f9" d="M 58.5,35.5 C 61.1667,53.5 53.5,61.1667 35.5,58.5C 42.8333,50.5 50.5,42.8333 58.5,35.5 Z"/></g>
</svg>
